<svg width="354" height="354" viewBox="0 0 354 354" fill="none" xmlns="http://www.w3.org/2000/svg">
<path d="M0 0C-2.03205e-06 23.244 4.57824 46.2603 13.4733 67.735C22.3684 89.2096 35.4061 108.722 51.8421 125.158C68.2781 141.594 87.7904 154.632 109.265 163.527C130.74 172.422 153.756 177 177 177C200.244 177 223.26 172.422 244.735 163.527C266.21 154.632 285.722 141.594 302.158 125.158C318.594 108.722 331.632 89.2096 340.527 67.735C349.422 46.2604 354 23.244 354 1.54738e-05L0 0Z" fill="black"/>
<path d="M0 177C-2.03205e-06 200.244 4.57824 223.26 13.4733 244.735C22.3684 266.21 35.4061 285.722 51.8421 302.158C68.2781 318.594 87.7904 331.632 109.265 340.527C130.74 349.422 153.756 354 177 354C200.244 354 223.26 349.422 244.735 340.527C266.21 331.632 285.722 318.594 302.158 302.158C318.594 285.722 331.632 266.21 340.527 244.735C349.422 223.26 354 200.244 354 177L0 177Z" fill="black"/>
</svg>
