<svg width="341" height="169" viewBox="0 0 341 169" fill="none" xmlns="http://www.w3.org/2000/svg">
<path d="M0 0C-9.70104e-07 11.1624 2.18565 22.2154 6.43218 32.5281C10.6787 42.8408 16.9029 52.2111 24.7495 60.1041C32.596 67.997 41.9112 74.2581 52.1632 78.5298C62.4153 82.8014 73.4033 85 84.5 85C95.5967 85 106.585 82.8014 116.837 78.5298C127.089 74.2581 136.404 67.9971 144.251 60.1041C152.097 52.2111 158.321 42.8408 162.568 32.5281C166.814 22.2154 169 11.1624 169 7.43093e-06L0 0Z" fill="black"/>
<path d="M169 169C169 157.838 166.814 146.785 162.568 136.472C158.321 126.159 152.097 116.789 144.251 108.896C136.404 101.003 127.089 94.7419 116.837 90.4702C106.585 86.1986 95.5967 84 84.5 84C73.4033 84 62.4153 86.1986 52.1632 90.4702C41.9112 94.7419 32.596 101.003 24.7495 108.896C16.9029 116.789 10.6787 126.159 6.43217 136.472C2.18565 146.785 -9.75845e-07 157.838 0 169L169 169Z" fill="black"/>
<path d="M172 169C183.162 169 194.215 166.814 204.528 162.568C214.841 158.321 224.211 152.097 232.104 144.251C239.997 136.404 246.258 127.089 250.53 116.837C254.801 106.585 257 95.5967 257 84.5C257 73.4033 254.801 62.4153 250.53 52.1633C246.258 41.9112 239.997 32.596 232.104 24.7495C224.211 16.9029 214.841 10.6787 204.528 6.43217C194.215 2.18565 183.162 -4.87923e-07 172 0L172 169Z" fill="black"/>
<path d="M341 0C329.838 -1.45803e-06 318.785 2.18565 308.472 6.43218C298.159 10.6787 288.789 16.9029 280.896 24.7495C273.003 32.596 266.742 41.9112 262.47 52.1632C258.199 62.4153 256 73.4033 256 84.5C256 95.5967 258.199 106.585 262.47 116.837C266.742 127.089 273.003 136.404 280.896 144.251C288.789 152.097 298.159 158.321 308.472 162.568C318.785 166.814 329.838 169 341 169L341 0Z" fill="black"/>
</svg>
